<?xml version="1.0" standalone="no"?>
<!DOCTYPE svg PUBLIC "-//W3C//DTD SVG 20010904//EN"
 "http://www.w3.org/TR/2001/REC-SVG-20010904/DTD/svg10.dtd">
<svg version="1.0" xmlns="http://www.w3.org/2000/svg"
 width="4000.000000pt" height="512.000000pt" viewBox="0 0 4000.000000 512.000000"
 preserveAspectRatio="xMidYMid meet">

<g transform="translate(0.000000,512.000000) scale(0.100000,-0.100000)"
fill="#000000" stroke="none">
<path d="M0 2560 l0 -2560 20000 0 20000 0 0 2560 0 2560 -20000 0 -20000 0 0
-2560z m9636 2289 c216 -154 378 -228 594 -269 30 -6 136 -15 235 -20 255 -14
411 -55 635 -171 127 -66 293 -180 319 -218 13 -20 16 -51 16 -148 l0 -123 41
0 c56 0 204 -26 284 -50 82 -25 125 -51 144 -88 31 -61 84 -403 117 -763 l13
-136 101 48 c121 58 216 78 285 59 127 -34 258 -284 291 -553 19 -157 1 -263
-73 -416 -45 -93 -61 -115 -147 -201 -118 -118 -149 -135 -256 -135 -108 0
-110 13 -9 107 243 230 317 505 198 741 -52 102 -60 110 -118 105 -70 -6 -125
-34 -141 -72 -8 -17 -17 -71 -21 -120 -6 -83 -8 -91 -41 -127 -19 -21 -51 -48
-70 -60 l-36 -22 5 -112 c5 -111 17 -155 42 -155 7 0 45 61 85 136 101 190
110 204 144 204 23 0 27 -4 27 -30 0 -41 -71 -252 -118 -354 -22 -46 -59 -105
-83 -131 -40 -44 -46 -47 -84 -43 l-40 5 -2 -111 c0 -61 -8 -144 -17 -185 -54
-254 -347 -585 -654 -740 -333 -168 -761 -173 -1096 -13 -278 133 -507 353
-631 606 -52 104 -75 216 -75 355 l0 87 -41 -4 c-36 -4 -44 0 -79 37 -22 23
-58 79 -80 124 -44 92 -119 310 -123 360 -2 28 1 32 25 35 24 3 32 -4 61 -50
19 -29 56 -96 82 -148 65 -130 84 -156 101 -138 16 15 34 129 33 208 l0 55
-56 40 c-78 56 -85 70 -93 187 -6 97 -8 102 -38 129 -33 30 -87 49 -139 49
-35 0 -63 -29 -101 -106 -61 -122 -69 -310 -17 -437 49 -122 151 -260 240
-327 36 -27 45 -40 43 -60 -3 -24 -7 -25 -71 -28 -81 -4 -127 14 -209 82 -123
100 -232 278 -262 428 -38 184 -3 405 94 598 113 226 232 260 482 137 l87 -43
5 41 c32 261 70 440 120 563 l24 60 -47 7 c-122 17 -241 80 -241 127 0 17 5
20 29 15 26 -6 136 6 168 18 7 2 -11 26 -44 57 -73 69 -129 155 -154 240 -17
57 -21 89 -18 182 4 120 14 146 53 146 11 0 35 -9 51 -21 39 -26 213 -114 273
-138 l47 -19 -65 67 c-75 77 -124 164 -171 301 -41 119 -44 223 -10 311 20 52
53 99 69 99 5 0 53 -32 108 -71z m5194 -1382 c243 -63 418 -194 511 -381 54
-110 69 -170 76 -308 l6 -118 -290 0 -291 0 -6 63 c-13 113 -69 206 -151 250
-57 31 -183 31 -241 0 -85 -45 -142 -141 -164 -275 -13 -81 -13 -385 0 -466
22 -134 79 -230 164 -275 58 -31 184 -31 241 0 82 43 129 119 148 238 l12 75
289 0 289 0 -6 -117 c-7 -141 -25 -212 -79 -315 -124 -239 -388 -388 -719
-405 -500 -26 -846 217 -950 665 -26 113 -37 459 -20 611 40 340 202 581 475
706 138 64 265 86 466 80 112 -3 167 -9 240 -28z m9594 8 c381 -80 623 -351
676 -756 15 -115 12 -430 -5 -542 -64 -426 -338 -687 -776 -738 -123 -14 -300
-7 -414 16 -349 72 -585 310 -662 665 -26 124 -26 566 0 690 83 383 347 625
742 679 100 14 345 6 439 -14z m5350 0 c381 -80 623 -351 676 -756 15 -115 12
-430 -5 -542 -64 -426 -338 -687 -776 -738 -123 -14 -300 -7 -414 16 -349 72
-585 310 -662 665 -26 124 -26 566 0 690 83 383 347 625 742 679 100 14 345 6
439 -14z m-12939 -25 c354 -51 566 -241 615 -553 15 -91 8 -238 -15 -310 -38
-125 -148 -268 -265 -345 l-57 -37 192 -365 193 -365 -331 -3 c-182 -1 -334 1
-338 5 -4 5 -78 152 -163 328 l-155 320 -81 3 -80 3 0 -331 0 -330 -300 0
-300 0 0 995 0 995 508 0 c283 0 538 -5 577 -10z m1509 -385 c90 -225 163
-394 169 -392 6 2 81 179 168 393 l156 389 321 3 321 2 -63 -132 c-35 -73
-186 -384 -335 -690 l-271 -558 0 -310 0 -310 -310 0 -310 0 0 301 0 301 -331
692 c-183 380 -334 694 -336 699 -2 4 146 7 329 7 l334 0 158 -395z m2396 381
c162 -29 276 -91 383 -206 71 -77 128 -183 159 -298 32 -114 31 -326 0 -436
-65 -226 -205 -381 -412 -456 -104 -39 -199 -50 -416 -50 l-184 0 0 -270 0
-270 -305 0 -305 0 0 1000 0 1000 503 0 c377 -1 521 -4 577 -14z m2330 -231
l0 -245 -250 0 -250 0 0 -750 0 -750 -310 0 -310 0 0 750 0 750 -255 0 -255 0
0 245 0 245 815 0 815 0 0 -245z m3875 -200 c117 -242 218 -440 224 -440 7 0
108 198 225 440 l214 440 321 3 321 2 0 -1000 0 -1000 -275 0 -275 0 0 561 c0
526 -1 560 -17 557 -12 -2 -70 -117 -187 -371 l-170 -367 -161 0 -161 0 -171
368 c-107 229 -177 368 -187 370 -14 3 -16 -52 -16 -557 l0 -561 -270 0 -270
0 0 1000 0 1000 321 -2 322 -3 212 -440z m4621 -2 c352 -496 372 -523 385
-523 5 0 9 198 9 485 l0 485 280 0 280 0 0 -1000 0 -1000 -227 0 -228 0 -344
490 c-189 270 -350 490 -358 490 -11 0 -13 -86 -13 -490 l0 -490 -280 0 -280
0 0 1000 0 1000 229 0 229 0 318 -447z m1974 57 c0 -368 1 -390 18 -390 12 0
113 129 307 390 l289 390 319 0 c252 0 317 -3 311 -12 -4 -7 -152 -204 -328
-437 -177 -233 -320 -428 -319 -432 2 -4 148 -248 326 -541 179 -294 330 -544
336 -556 l12 -22 -355 0 -354 0 -198 343 c-108 188 -203 350 -210 360 -11 16
-19 9 -83 -74 l-71 -92 0 -268 0 -269 -305 0 -305 0 0 1000 0 1000 305 0 305
0 0 -390z m2890 155 l0 -235 -410 0 -410 0 0 -160 0 -160 385 0 385 0 0 -215
0 -215 -385 0 -385 0 0 -155 0 -155 410 0 410 0 0 -235 0 -235 -710 0 -710 0
0 1000 0 1000 710 0 710 0 0 -235z m964 -160 c90 -225 163 -394 169 -392 6 2
81 179 168 393 l156 389 321 3 321 2 -63 -132 c-35 -73 -186 -384 -335 -690
l-271 -558 0 -310 0 -310 -310 0 -310 0 0 301 0 301 -331 692 c-183 380 -334
694 -336 699 -2 4 146 7 329 7 l334 0 158 -395z"/>
<path d="M10240 3339 c-236 -64 -483 -216 -539 -333 -25 -52 -36 -142 -27
-228 l7 -65 322 -6 c310 -6 470 -17 549 -38 32 -8 39 -15 47 -47 l10 -37 130
0 129 0 8 35 c7 29 16 37 46 47 70 23 262 36 565 37 293 1 302 2 307 21 24
103 12 230 -30 302 -83 142 -466 333 -670 333 -96 0 -205 -79 -309 -224 l-47
-66 -48 67 c-60 86 -156 178 -212 203 -56 25 -140 25 -238 -1z"/>
<path d="M9840 2543 c-19 -2 -68 -10 -108 -19 -95 -20 -98 -27 -83 -174 14
-135 51 -258 91 -304 56 -63 231 -102 425 -93 138 5 218 27 247 68 29 39 60
233 56 352 -4 115 -13 128 -101 147 -127 26 -387 38 -527 23z"/>
<path d="M11275 2544 c-182 -22 -252 -43 -261 -81 -11 -43 3 -286 21 -362 9
-40 25 -81 36 -92 38 -38 123 -54 289 -54 165 0 239 13 330 58 80 39 127 166
137 367 l6 116 -28 12 c-69 32 -382 53 -530 36z"/>
<path d="M10638 2343 c-31 -5 -31 -5 -48 -133 -15 -115 -45 -228 -68 -259 -25
-35 -112 -58 -274 -73 l-126 -11 -70 -106 c-113 -170 -162 -285 -162 -380 0
-90 84 -224 221 -356 126 -120 251 -197 404 -245 98 -32 299 -39 416 -15 321
65 611 267 760 530 l34 60 0 135 c0 108 -5 156 -24 239 -37 156 -16 145 -287
146 -126 1 -249 5 -274 9 l-45 8 31 -20 c28 -18 64 -75 64 -101 0 -6 -15 -18
-32 -28 -31 -16 -73 -18 -194 -13 -18 1 -58 -12 -92 -29 -71 -36 -72 -36 -72
-16 0 39 152 156 241 186 43 15 60 29 33 29 -45 0 -115 32 -128 59 -20 38 -44
143 -62 267 -9 60 -18 111 -20 113 -6 6 -195 10 -226 4z m-103 -495 c83 -41
162 -102 181 -139 8 -17 13 -33 11 -36 -3 -2 -33 10 -67 27 -35 18 -76 31 -94
30 -121 -5 -163 -3 -193 13 -18 10 -33 25 -33 34 0 25 40 82 68 98 32 17 48
13 127 -27z m1046 -264 c54 -28 26 -54 -83 -78 -22 -5 -36 -23 -70 -89 -56
-107 -144 -224 -200 -264 -82 -58 -257 -86 -553 -87 -133 -1 -196 3 -210 11
l-20 12 20 1 c11 0 96 7 189 15 329 29 473 62 534 124 33 33 123 206 137 264
6 24 4 27 -17 27 -28 0 -66 25 -55 36 4 4 38 16 75 25 86 23 213 24 253 3z"/>
<path d="M24069 2994 c-99 -30 -174 -130 -204 -269 -20 -96 -20 -424 0 -520
39 -182 147 -285 300 -285 153 0 261 103 300 285 20 96 20 424 0 520 -47 220
-205 328 -396 269z"/>
<path d="M29419 2994 c-99 -30 -174 -130 -204 -269 -20 -96 -20 -424 0 -520
39 -182 147 -285 300 -285 153 0 261 103 300 285 20 96 20 424 0 520 -47 220
-205 328 -396 269z"/>
<path d="M16350 2780 l0 -240 133 0 c167 0 225 15 283 74 98 98 81 284 -34
357 -67 42 -101 49 -249 49 l-133 0 0 -240z"/>
<path d="M20270 2725 l0 -285 93 0 c128 0 187 19 247 80 108 107 108 304 1
411 -59 60 -120 79 -248 79 l-93 0 0 -285z"/>
</g>
</svg>
