<?xml version="1.0" standalone="no"?>
<!DOCTYPE svg PUBLIC "-//W3C//DTD SVG 20010904//EN"
 "http://www.w3.org/TR/2001/REC-SVG-20010904/DTD/svg10.dtd">
<svg version="1.0" xmlns="http://www.w3.org/2000/svg"
 width="511.000000pt" height="512.000000pt" viewBox="0 0 511.000000 512.000000"
 preserveAspectRatio="xMidYMid meet">

<g transform="translate(0.000000,512.000000) scale(0.100000,-0.100000)"
fill="#000000" stroke="none">
<path d="M1220 4738 c-37 -40 -63 -126 -63 -213 -1 -148 88 -358 203 -476 l65
-67 -47 19 c-60 24 -234 112 -273 138 -16 12 -40 21 -51 21 -39 0 -49 -26 -53
-146 -3 -93 1 -125 18 -182 25 -85 81 -171 154 -240 33 -31 51 -55 44 -57 -32
-12 -142 -24 -168 -18 -24 5 -29 2 -29 -15 0 -47 119 -110 241 -127 l47 -7
-24 -60 c-50 -123 -88 -302 -120 -563 l-5 -41 -87 43 c-250 123 -369 89 -482
-137 -97 -193 -132 -414 -94 -598 30 -150 139 -328 262 -428 82 -68 128 -86
209 -82 64 3 68 4 71 28 2 20 -7 33 -43 60 -89 67 -191 205 -240 327 -52 127
-44 315 17 437 38 77 66 106 101 106 52 0 106 -19 139 -49 30 -27 32 -32 38
-129 8 -117 15 -131 93 -187 l56 -40 0 -55 c1 -79 -17 -193 -33 -208 -17 -18
-36 8 -101 138 -26 52 -63 119 -82 148 -29 46 -37 53 -61 50 -24 -3 -27 -7
-25 -35 4 -50 79 -268 123 -360 22 -45 58 -101 80 -124 35 -37 43 -41 79 -37
l41 4 0 -87 c0 -139 23 -251 75 -355 159 -325 493 -593 852 -685 285 -73 617
-38 875 92 240 121 485 361 597 583 51 102 72 199 74 342 l2 111 40 -5 c38 -4
44 -1 84 43 24 26 61 85 83 131 47 102 118 313 118 354 0 26 -4 30 -27 30 -34
0 -43 -14 -144 -204 -40 -75 -78 -136 -85 -136 -25 0 -37 44 -42 155 l-5 112
36 22 c19 12 51 39 70 60 33 36 35 44 41 127 4 49 13 103 21 120 16 38 71 66
141 72 58 5 66 -3 118 -105 119 -236 45 -511 -198 -741 -101 -94 -99 -107 9
-107 107 0 138 17 256 135 86 86 102 108 147 201 74 153 92 259 73 416 -33
269 -164 519 -291 553 -69 19 -164 -1 -285 -59 l-101 -48 -13 136 c-33 360
-86 702 -117 763 -19 37 -62 63 -144 88 -80 24 -228 50 -284 50 l-41 0 0 123
c0 97 -3 128 -16 148 -26 38 -192 152 -319 218 -224 116 -380 157 -635 171
-99 5 -205 14 -235 20 -216 41 -378 115 -594 269 -55 39 -103 71 -108 71 -4 0
-16 -10 -28 -22z m978 -1558 c56 -25 152 -117 212 -203 l48 -67 47 66 c104
145 213 224 309 224 204 0 587 -191 670 -333 42 -72 54 -199 30 -302 -5 -19
-14 -20 -307 -21 -303 -1 -495 -14 -565 -37 -30 -10 -39 -18 -46 -47 l-8 -35
-129 0 -130 0 -10 37 c-8 32 -15 39 -47 47 -79 21 -239 32 -549 38 l-322 6 -7
65 c-9 86 2 176 27 228 42 88 200 203 379 277 182 76 315 95 398 57z m-248
-800 c124 -14 186 -29 212 -50 21 -16 23 -28 26 -117 4 -119 -27 -313 -56
-352 -29 -41 -109 -63 -247 -68 -194 -9 -369 30 -425 93 -40 46 -77 169 -91
304 -15 147 -12 154 83 174 40 9 89 17 108 19 77 8 310 6 390 -3z m1451 -5
c53 -8 109 -20 124 -27 l28 -12 -6 -116 c-10 -201 -57 -328 -137 -367 -91 -45
-165 -58 -330 -58 -166 0 -251 16 -289 54 -11 11 -27 52 -36 92 -18 76 -32
319 -21 362 9 38 79 59 261 81 82 9 320 4 406 -9z m-817 -196 c2 -2 11 -53 20
-113 18 -124 42 -229 62 -267 13 -27 83 -59 128 -59 27 0 10 -14 -33 -29 -89
-30 -241 -147 -241 -186 0 -20 1 -20 72 16 34 17 74 30 92 29 121 -5 163 -3
194 13 17 10 32 22 32 28 0 26 -36 83 -64 101 l-31 20 45 -8 c25 -4 148 -8
274 -9 271 -1 250 10 287 -146 19 -83 24 -131 24 -239 l0 -135 -34 -60 c-149
-263 -439 -465 -760 -530 -117 -24 -318 -17 -416 15 -153 48 -278 125 -404
245 -137 132 -221 266 -221 356 0 95 49 210 162 380 l70 106 126 11 c162 15
249 38 274 73 23 31 53 144 68 259 17 128 17 128 48 133 31 6 220 2 226 -4z"/>
<path d="M2128 1715 c-28 -16 -68 -73 -68 -98 0 -9 15 -24 33 -34 30 -16 72
-18 193 -13 18 1 59 -12 94 -30 34 -17 64 -29 67 -27 12 12 -32 70 -80 106
-52 39 -155 95 -192 105 -11 3 -32 -1 -47 -9z"/>
<path d="M3048 1421 c-37 -9 -71 -21 -75 -25 -11 -11 27 -36 55 -36 21 0 23
-3 17 -27 -14 -58 -104 -231 -137 -264 -61 -62 -205 -95 -534 -124 -93 -8
-178 -15 -189 -15 l-20 -1 20 -12 c14 -8 77 -12 210 -11 296 1 471 29 553 87
56 40 144 157 200 264 34 66 48 84 70 89 109 24 137 50 83 78 -40 21 -167 20
-253 -3z"/>
</g>
</svg>
